PathFileType	4	(X/Y/Z)	 1.9Hzlow3min.trc
DataRate	CameraRate	NumFrames	NumMarkers	Units	OrigDataRate	OrigDataStartFrame	OrigNumFrames
200	200	8	42	m	200	126	1000
Frame#	Time	C7			LSH			RSH			MAN			RASI			LASI			HIPR			HIPL			RPSI			LPSI			COX			RTHI1			RTHI2			RTHI3			RTHI4			RLKN			RMKN			RSHA1			RSHA2			RSHA3			RSHA4			RLMAL			RHEEL			RMET5			RMET1			RTOE			LTHI1			LTHI2			LTHI3			LTHI4			LLKN			LMKN			LSHA1			LSHA2			LSHA3			LSHA4			LLMAL			LMMAL			LHEEL			LMET5			LMET1			LTOE			
		X1	Y1	Z1	X2	Y2	Z2	X3	Y3	Z3	X4	Y4	Z4	X5	Y5	Z5	X6	Y6	Z6	X7	Y7	Z7	X8	Y8	Z8	X9	Y9	Z9	X10	Y10	Z10	X11	Y11	Z11	X12	Y12	Z12	X13	Y13	Z13	X14	Y14	Z14	X15	Y15	Z15	X16	Y16	Z16	X17	Y17	Z17	X18	Y18	Z18	X19	Y19	Z19	X20	Y20	Z20	X21	Y21	Z21	X22	Y22	Z22	X23	Y23	Z23	X24	Y24	Z24	X25	Y25	Z25	X26	Y26	Z26	X27	Y27	Z27	X28	Y28	Z28	X29	Y29	Z29	X30	Y30	Z30	X31	Y31	Z31	X32	Y32	Z32	X33	Y33	Z33	X34	Y34	Z34	X35	Y35	Z35	X36	Y36	Z36	X37	Y37	Z37	X38	Y38	Z38	X39	Y39	Z39	X40	Y40	Z40	X41	Y41	Z41	X42	Y42	Z42	
126	0.6300	-0.340601	1.371198	-0.534288	-0.275945	1.362368	-0.692521	-0.249379	1.357301	-0.387033	-0.219233	1.313281	-0.549925	-0.212876	0.885124	-0.431044	-0.242843	0.887008	-0.664691	-0.245830	0.972304	-0.408593	-0.277955	0.967439	-0.682123	-0.373021	0.941124	-0.481779	-0.386753	0.941341	-0.569241	-0.387096	0.939305	-0.527455	-0.288834	0.726017	-0.360007	-0.274623	0.665508	-0.363012	-0.206021	0.689812	-0.372118	-0.227946	0.746089	-0.368579	-0.223324	0.454847	-0.385946	-0.228200	0.443538	-0.505196	-0.317357	0.337526	-0.363693	-0.337925	0.301144	-0.373351	-0.282103	0.277006	-0.373176	-0.265467	0.313621	-0.368377	-0.359951	0.128839	-0.402249	-0.411238	0.131977	-0.438189	-0.279767	0.040920	-0.388164	-0.247147	0.044684	-0.454394	-0.223858	0.035992	-0.452648	-0.337889	0.726902	-0.720000	-0.322656	0.669527	-0.724167	-0.253111	0.689471	-0.731137	-0.276121	0.746134	-0.727096	-0.262026	0.465578	-0.722238	-0.258428	0.445191	-0.606203	-0.363952	0.311051	-0.724021	-0.379067	0.275179	-0.711515	-0.319751	0.256889	-0.709891	-0.311480	0.298329	-0.722069	-0.404148	0.135402	-0.685985	-0.377653	0.149957	-0.611378	-0.452158	0.142158	-0.644536	-0.334979	0.039524	-0.696425	-0.296607	0.045327	-0.626472	-0.279980	0.036605	-0.636614	
127	0.6350	-0.340192	1.363287	-0.534189	-0.275729	1.354046	-0.692662	-0.249170	1.348966	-0.386569	-0.218636	1.305036	-0.549789	-0.213659	0.877074	-0.430716	-0.243328	0.878991	-0.664770	-0.246471	0.964014	-0.408056	-0.278394	0.959134	-0.682299	-0.374027	0.932834	-0.481730	-0.387597	0.932981	-0.569176	-0.387965	0.931006	-0.527419	-0.288617	0.717850	-0.359959	-0.273916	0.657481	-0.362742	-0.205496	0.682281	-0.371807	-0.227876	0.738389	-0.368460	-0.220655	0.447100	-0.385658	-0.225401	0.435893	-0.504373	-0.316868	0.331749	-0.363352	-0.338467	0.296119	-0.372995	-0.283273	0.270515	-0.373500	-0.265642	0.306637	-0.368560	-0.363458	0.124658	-0.402505	-0.415119	0.126902	-0.438302	-0.281113	0.040363	-0.388070	-0.248258	0.044978	-0.454358	-0.224464	0.036002	-0.452544	-0.337267	0.718432	-0.720154	-0.321562	0.661201	-0.724521	-0.252227	0.681736	-0.731790	-0.275698	0.738202	-0.727502	-0.258717	0.457634	-0.723107	-0.255968	0.437437	-0.607551	-0.364586	0.305652	-0.724335	-0.380590	0.270316	-0.711376	-0.321746	0.250654	-0.709201	-0.312413	0.291728	-0.721886	-0.408122	0.131734	-0.684629	-0.383065	0.146881	-0.609645	-0.456542	0.137880	-0.643478	-0.336129	0.039337	-0.696121	-0.297615	0.045341	-0.626206	-0.280501	0.036588	-0.636243	
128	0.6400	-0.339818	1.355401	-0.534110	-0.275535	1.345699	-0.692890	-0.249010	1.340594	-0.386063	-0.218054	1.296729	-0.549695	-0.214504	0.868922	-0.430341	-0.243837	0.870901	-0.664861	-0.247199	0.955587	-0.407439	-0.278889	0.950682	-0.682526	-0.375162	0.924378	-0.481678	-0.388541	0.924460	-0.569111	-0.388943	0.922548	-0.527383	-0.288357	0.709500	-0.359868	-0.273112	0.649290	-0.362419	-0.204884	0.674640	-0.371343	-0.227778	0.730565	-0.368219	-0.217881	0.439423	-0.385320	-0.222472	0.428219	-0.503538	-0.316183	0.326201	-0.363006	-0.338809	0.291366	-0.372538	-0.284188	0.264331	-0.373840	-0.265609	0.299956	-0.368808	-0.366349	0.120469	-0.402758	-0.418647	0.121863	-0.438371	-0.282516	0.039707	-0.387696	-0.249080	0.045256	-0.454318	-0.224715	0.035984	-0.452389	-0.336630	0.709741	-0.720317	-0.320422	0.652661	-0.724899	-0.251331	0.673839	-0.732613	-0.275293	0.730091	-0.728043	-0.255247	0.449683	-0.724005	-0.253166	0.429684	-0.608936	-0.364885	0.300646	-0.724561	-0.381728	0.265792	-0.711245	-0.323402	0.244898	-0.708695	-0.313038	0.285598	-0.721690	-0.411238	0.128229	-0.683418	-0.387436	0.144110	-0.608052	-0.460368	0.133832	-0.642322	-0.337382	0.039104	-0.695975	-0.298322	0.045370	-0.625819	-0.280668	0.036584	-0.635881	
129	0.6450	-0.339472	1.347595	-0.534055	-0.275365	1.337386	-0.693219	-0.248911	1.332250	-0.385516	-0.217498	1.288400	-0.549646	-0.215396	0.860718	-0.429909	-0.244375	0.862777	-0.664958	-0.248026	0.947049	-0.406750	-0.279445	0.942125	-0.682802	-0.376446	0.915787	-0.481618	-0.389603	0.915816	-0.569048	-0.390047	0.913966	-0.527341	-0.288069	0.701031	-0.359703	-0.272225	0.640987	-0.362027	-0.204210	0.666950	-0.370717	-0.227665	0.722669	-0.367828	-0.215051	0.431951	-0.384930	-0.219464	0.420644	-0.502755	-0.315237	0.320876	-0.362644	-0.338825	0.286810	-0.371969	-0.284687	0.258463	-0.374136	-0.265274	0.293624	-0.369084	-0.368661	0.116222	-0.403014	-0.421786	0.116934	-0.438509	-0.283668	0.039024	-0.387367	-0.249611	0.045405	-0.454246	-0.224814	0.035935	-0.452211	-0.335992	0.700872	-0.720522	-0.319249	0.643937	-0.725315	-0.250444	0.665797	-0.733571	-0.274924	0.721819	-0.728707	-0.251729	0.441855	-0.724947	-0.250019	0.422034	-0.610296	-0.364662	0.295934	-0.724779	-0.382266	0.261502	-0.711207	-0.324467	0.239536	-0.708308	-0.313139	0.279882	-0.721462	-0.413558	0.124768	-0.682327	-0.390599	0.141478	-0.606632	-0.463668	0.129924	-0.641076	-0.338376	0.038865	-0.695820	-0.298585	0.045336	-0.625547	-0.280549	0.036550	-0.635643	
130	0.6500	-0.339152	1.339915	-0.534025	-0.275216	1.329144	-0.693650	-0.248878	1.323991	-0.384935	-0.216951	1.280137	-0.549624	-0.216335	0.852502	-0.429409	-0.244953	0.854654	-0.665061	-0.248958	0.938442	-0.405993	-0.280077	0.933489	-0.683126	-0.377900	0.907099	-0.481537	-0.390806	0.907095	-0.568984	-0.391306	0.905293	-0.527290	-0.287782	0.692512	-0.359440	-0.271301	0.632649	-0.361543	-0.203513	0.659275	-0.369931	-0.227570	0.714768	-0.367274	-0.212237	0.424784	-0.384500	-0.216448	0.413303	-0.502104	-0.314042	0.315733	-0.362284	-0.338488	0.282374	-0.371307	-0.284736	0.252885	-0.374368	-0.264626	0.287644	-0.369346	-0.370545	0.111949	-0.403314	-0.424532	0.112180	-0.438766	-0.284611	0.038162	-0.386975	-0.249973	0.045480	-0.454106	-0.224795	0.035916	-0.451976	-0.335377	0.691855	-0.720776	-0.318084	0.635083	-0.725813	-0.249591	0.657657	-0.734635	-0.274603	0.713430	-0.729456	-0.248296	0.434280	-0.725933	-0.246519	0.414611	-0.611587	-0.363866	0.291383	-0.724989	-0.382193	0.257350	-0.711282	-0.324926	0.234453	-0.708019	-0.312679	0.274453	-0.721204	-0.415381	0.121275	-0.681284	-0.392693	0.138821	-0.605396	-0.466506	0.126162	-0.639799	-0.339161	0.038379	-0.695759	-0.298704	0.045239	-0.625344	-0.280348	0.036524	-0.635474	
131	0.6550	-0.338855	1.332410	-0.534012	-0.275097	1.321021	-0.694173	-0.248921	1.315888	-0.384330	-0.216405	1.272001	-0.549622	-0.217315	0.844322	-0.428826	-0.245573	0.846573	-0.665177	-0.249994	0.929800	-0.405173	-0.280781	0.924811	-0.683494	-0.379526	0.898387	-0.481446	-0.392162	0.898367	-0.568937	-0.392742	0.896590	-0.527224	-0.287541	0.684046	-0.359063	-0.270402	0.624372	-0.360968	-0.202854	0.651689	-0.368996	-0.227531	0.706944	-0.366551	-0.209529	0.418002	-0.384073	-0.213525	0.406353	-0.501650	-0.312678	0.310758	-0.361955	-0.337785	0.277914	-0.370753	-0.284401	0.247560	-0.374522	-0.263731	0.281979	-0.369579	-0.372186	0.107755	-0.403676	-0.426920	0.107707	-0.439139	-0.285503	0.037337	-0.386580	-0.250323	0.045579	-0.453939	-0.224720	0.035887	-0.451704	-0.334822	0.682745	-0.721082	-0.316972	0.626172	-0.726386	-0.248805	0.649489	-0.735772	-0.274364	0.704989	-0.730268	-0.245074	0.427085	-0.726947	-0.242718	0.407534	-0.612760	-0.362641	0.286892	-0.725221	-0.381651	0.253250	-0.711466	-0.324900	0.229510	-0.707732	-0.311790	0.269187	-0.720930	-0.417010	0.117783	-0.680259	-0.394061	0.136063	-0.604294	-0.468948	0.122585	-0.638566	-0.339982	0.037873	-0.695815	-0.298808	0.045222	-0.625216	-0.280110	0.036501	-0.635424	
132	0.6600	-0.338587	1.325122	-0.534011	-0.275000	1.313081	-0.694769	-0.249042	1.307980	-0.383706	-0.215867	1.264055	-0.549626	-0.218339	0.836239	-0.428151	-0.246238	0.838580	-0.665321	-0.251131	0.921168	-0.404294	-0.281589	0.916124	-0.683887	-0.381312	0.889767	-0.481337	-0.393656	0.889737	-0.568903	-0.394337	0.887980	-0.527153	-0.287411	0.675740	-0.358564	-0.269597	0.616257	-0.360317	-0.202301	0.644286	-0.367927	-0.227603	0.699294	-0.365661	-0.207000	0.411641	-0.383698	-0.210766	0.399927	-0.501419	-0.311236	0.305950	-0.361686	-0.336892	0.273487	-0.370342	-0.283795	0.242454	-0.374706	-0.262679	0.276610	-0.369791	-0.373711	0.103802	-0.404106	-0.428994	0.103630	-0.439677	-0.286356	0.036648	-0.386233	-0.250693	0.045686	-0.453793	-0.224682	0.035834	-0.451424	-0.334376	0.673672	-0.721437	-0.315957	0.617302	-0.726983	-0.248137	0.641381	-0.736923	-0.274255	0.696582	-0.731133	-0.242156	0.420358	-0.727953	-0.238689	0.400883	-0.613799	-0.361197	0.282436	-0.725450	-0.380851	0.249164	-0.711691	-0.324602	0.224712	-0.707533	-0.310682	0.264038	-0.720662	-0.418589	0.114380	-0.679218	-0.395095	0.133228	-0.603250	-0.471087	0.119257	-0.637390	-0.340762	0.037417	-0.695874	-0.298930	0.045262	-0.625172	-0.279866	0.036477	-0.635422	
133	0.6650	-0.338347	1.318107	-0.534022	-0.274920	1.305389	-0.695410	-0.249240	1.300343	-0.383085	-0.215339	1.256361	-0.549632	-0.219423	0.828310	-0.427383	-0.246944	0.830724	-0.665512	-0.252374	0.912597	-0.403356	-0.282482	0.907486	-0.684297	-0.383200	0.881410	-0.481214	-0.395245	0.881363	-0.568890	-0.396039	0.879632	-0.527084	-0.287434	0.667701	-0.357960	-0.268934	0.608417	-0.359639	-0.201912	0.637180	-0.366771	-0.227833	0.691924	-0.364623	-0.204687	0.405727	-0.383403	-0.208237	0.394132	-0.501387	-0.309801	0.301330	-0.361513	-0.335808	0.269054	-0.370239	-0.283024	0.237600	-0.374977	-0.261549	0.271516	-0.370000	-0.375139	0.100258	-0.404622	-0.430742	0.099990	-0.440394	-0.287101	0.036100	-0.386009	-0.251041	0.045772	-0.453656	-0.224658	0.035800	-0.451160	-0.334078	0.664785	-0.721814	-0.315083	0.608631	-0.727519	-0.247624	0.633470	-0.738003	-0.274310	0.688360	-0.732019	-0.239585	0.414157	-0.728897	-0.234534	0.394706	-0.614725	-0.359768	0.278069	-0.725616	-0.379994	0.245143	-0.711860	-0.324156	0.219965	-0.707187	-0.309547	0.259040	-0.720428	-0.420161	0.111211	-0.678159	-0.396070	0.130399	-0.602220	-0.472942	0.116275	-0.636292	-0.341437	0.036949	-0.695901	-0.299034	0.045322	-0.625122	-0.279638	0.036449	-0.635441	
